<svg viewBox="0 0 1920 1080" xmlns="http://www.w3.org/2000/svg">
  <path fill="transparent" stroke="#ff69b4ff" fill-opacity="0" stroke-width="5" stroke-linecap="round" stroke-linejoin="round" d="M549 232.38 L 548.01 232.38 L 546.07 231.41 L 544.64 230.6 L 527.89 230.6 L 494.89 230.6 L 474.01 228.38 L 466.34 228.38 L 458.03 256.98 L 458.03 279.08 L 458.03 295.53 L 456.98 321.09 L 456.98 330.33 L 456.98 332.33 L 460.98 333.33 L 515.73 334.63 L 544.53 331.75 L 544.53 328 L 541.53 302.89 L 538.39 282.98 L 538.39 252.42 L 539.39 243.42 L 542.39 237.42 L 545.39 229.42 L 543.56 233.96 L 541.54 235.98"/>
  <path fill="transparent" stroke="#ff69b4ff" fill-opacity="0" stroke-width="5" stroke-linecap="round" stroke-linejoin="round" d="M489.04 244.7 L 490.94 254.95 L 496.63 289.07 L 496.63 300.72 L 496.63 305.73 L 494.63 291.1 L 490.63 283.1 L 488.63 281.1 L 485.63 280.1 L 477.63 288.1 L 477.63 290.1 L 477.63 297.1 L 479.63 304.1 L 482.63 305.1 L 490.63 306.1 L 492.63 307.1 L 499.63 306.1 L 498.82 305.29"/>
  <path fill="transparent" stroke="#ff69b4ff" fill-opacity="0" stroke-width="5" stroke-linecap="round" stroke-linejoin="round" d="M694.59 243.06 L 694.59 242.06 L 690.44 241.22 L 669.37 241.22 L 626.61 241.22 L 608.9 241.22 L 600.04 241.22 L 597.04 241.22 L 594.03 257.51 L 591.8 282.4 L 593.87 294.1 L 595.87 311.1 L 595.87 316.1 L 663.49 320.25 L 676 327 L 677.01 327 L 690.01 318 L 694.01 310 L 696.01 298 L 697.01 286 L 697.01 275 L 696.01 265 L 694.01 259 L 694.01 258 L 694.01 252 L 694.01 248 L 694.01 246.03 L 694.01 245.16 L 692.51 244.34 L 689.06 245.29"/>
  <path fill="transparent" stroke="#ff69b4ff" fill-opacity="0" stroke-width="5" stroke-linecap="round" stroke-linejoin="round" d="M627.13 297.56 L 628.95 295.74 L 634.76 282.93 L 636.76 269.93 L 638.76 265.93 L 643.98 274.5 L 658.44 296.37 L 659.44 297.37 L 662.44 292.37"/>
  <path fill="transparent" stroke="#ff69b4ff" fill-opacity="0" stroke-width="5" stroke-linecap="round" stroke-linejoin="round" d="M653.48 288.29 L 652.72 288.29 L 641.94 289.29 L 639.94 289.29 L 638.94 289.29 L 638 289.29 L 634.74 288.65 L 632.66 288.65"/>
  <path fill="transparent" stroke="#ff69b4ff" fill-opacity="0" stroke-width="5" stroke-linecap="round" stroke-linejoin="round" d="M821.48 250.01 L 820.24 249.39 L 799.51 249.39 L 761.72 246.98 L 749.23 243.63 L 739.97 242.55 L 732.97 245.55 L 731.97 257.55 L 742.97 287.55 L 746.02 301.8 L 746.02 313.51 L 746.02 316.59 L 746.02 319.59 L 748.02 326.59 L 751.02 327.59 L 758.02 332.59 L 770.02 341.59 L 776.02 349.59 L 778.02 351.59 L 789.02 349.59 L 810.03 337.58 L 825.33 329.42 L 834.54 327.37 L 835.54 318.37 L 835.54 304.37 L 831.47 278.82 L 830.44 265.54 L 829.44 256.54 L 828.44 254.54 L 828.44 258.54 L 829.4 259.5 L 826.97 257.99 L 821.97 255.99 L 813.97 254.99 L 810.97 253.99 L 807.97 254.99"/>
  <path fill="transparent" stroke="#ff69b4ff" fill-opacity="0" stroke-width="5" stroke-linecap="round" stroke-linejoin="round" d="M798.49 270.47 L 797.5 269.48 L 793.51 271.47 L 779.51 273.47 L 772.51 274.47 L 771.51 274.47 L 769.51 280.42 L 769.51 285.42 L 767.51 293.42 L 767.51 298.42 L 779.55 294.33 L 784.76 292.24 L 781.99 293.17 L 773.23 296.09 L 769.23 298.09 L 769.23 299.89 L 768.81 306.66 L 768.81 310.89 L 768.81 315.69 L 768.81 316.69 L 779.44 317.53 L 781.44 316.53 L 783.44 316.53 L 789.44 316.53"/>
  <path fill="transparent" stroke="#ff69b4ff" fill-opacity="0" stroke-width="5" stroke-linecap="round" stroke-linejoin="round" d="M826.18 254.42 L 825.57 255.03 L 823.7 255.03 L 822.2 255.03 L 820.14 254.25 L 818.14 253.25 L 811.19 251.26 L 809.19 250.26 L 803.19 249.26 L 799.19 247.26 L 796.19 246.26"/>
  <path fill="transparent" stroke="#ff69b4ff" fill-opacity="0" stroke-width="5" stroke-linecap="round" stroke-linejoin="round" d="M1011.05 250.93 L 1010.15 250.93 L 977.76 250.93 L 948.42 250.93 L 928.83 253.09 L 924.77 253.09 L 920.77 255.09 L 917.77 281.28 L 917.77 305.2 L 917.77 327.82 L 913.17 353.17 L 909.86 364.31 L 909.86 365.33 L 935.68 366.33 L 961.91 363.94 L 980.04 359.38 L 1009.19 358.25 L 1010.2 358.25 L 1014.2 351.25 L 1014.2 334.25 L 1016.2 314.25 L 1016.2 303.25 L 1015.2 292.25 L 1015.2 282.25 L 1013.2 271.25 L 1011.2 262.25 L 1009.2 257.25 L 1009.2 253.25 L 1008.2 251.25 L 1007.2 250.25"/>
  <path fill="transparent" stroke="#ff69b4ff" fill-opacity="0" stroke-width="5" stroke-linecap="round" stroke-linejoin="round" d="M931.57 272.98 L 931.57 273.92 L 929.56 289.75 L 929.56 302.75 L 928.56 311.75 L 928.56 312.75 L 933.56 311.75 L 936.56 309.75 L 942.56 309.75"/>
  <path fill="transparent" stroke="#ff69b4ff" fill-opacity="0" stroke-width="5" stroke-linecap="round" stroke-linejoin="round" d="M959.56 289.52 L 958.65 293.16 L 958.65 317.23 L 958.65 319.23 L 959.56 314.41 L 960.56 306.41"/>
  <path fill="transparent" stroke="#ff69b4ff" fill-opacity="0" stroke-width="6" stroke-linecap="round" stroke-linejoin="round" d="M964.24 276.89 L 964.77 276.89"/>
  <path fill="transparent" stroke="#ff69b4ff" fill-opacity="0" stroke-width="6" stroke-linecap="round" stroke-linejoin="round" d="M1239.35 263.79 L 1234.95 262.95 L 1208.07 266.14 L 1171.54 267.27 L 1133.3 267.27 L 1121.66 267.27 L 1110.95 268.32 L 1096.94 272.32 L 1095.94 285.32 L 1095.94 308.32 L 1100.16 343.22 L 1100.27 403.72 L 1099.25 407.74 L 1100.25 411.74 L 1118.79 414.74 L 1167.82 409.7 L 1210.97 407.01 L 1217.64 408.34 L 1222.79 400.19 L 1239.18 377.56 L 1241.27 342.57 L 1243.41 325.36 L 1241.41 315.27 L 1239.41 309.27 L 1238.41 302.27 L 1238.41 292.27 L 1237.41 283.27 L 1236.41 272.27 L 1235.41 268.27 L 1234.42 267.27 L 1231.94 269.75"/>
  <path fill="transparent" stroke="#ff69b4ff" fill-opacity="0" stroke-width="6" stroke-linecap="round" stroke-linejoin="round" d="M1147.82 331.44 L 1151.23 330.05 L 1162.13 321.05 L 1172.13 309.05 L 1175.13 302.05 L 1176.13 294.05 L 1176.13 289.05 L 1176.13 288.05 L 1172.38 291.8 L 1167.38 298.8 L 1163.38 308.8 L 1162.38 319.8 L 1163.38 332.8 L 1164.38 343.8 L 1164.38 354.8 L 1161.38 364.8 L 1154.38 374.8 L 1153.38 375.8 L 1151.38 376.8"/>
  <path fill="transparent" stroke="#ff69b4ff" fill-opacity="0" stroke-width="6" stroke-linecap="round" stroke-linejoin="round" d="M1144.4 349.82 L 1146.39 346.85 L 1155.39 337.85 L 1171.39 331.85 L 1191.39 316.85 L 1195.39 314.85 L 1198.39 316.85"/>
  <path fill="transparent" stroke="#ff69b4ff" fill-opacity="0" stroke-width="6" stroke-linecap="round" stroke-linejoin="round" d="M1879.11 273.22 L 1878.12 274.17 L 1828.92 276.67 L 1823.34 280.89 L 1817.34 293.89 L 1813.34 310.89 L 1813.34 315.89 L 1811.34 328.89 L 1810.34 340.89 L 1809.34 349.89 L 1813.34 357.89 L 1827.34 356.89 L 1840.34 355.89 L 1858.34 355.89 L 1864.34 353.89 L 1869.34 348.89 L 1876.34 340.89 L 1879.36 323.78 L 1883.6 311.13 L 1886.66 292.82 L 1886.66 283.82 L 1885.66 282.82 L 1884.66 280.82 L 1882.26 281.56"/>
  <path fill="transparent" stroke="#ff69b4ff" fill-opacity="0" stroke-width="6" stroke-linecap="round" stroke-linejoin="round" d="M1842.47 308.77 L 1842.47 310.43 L 1841.55 315.26 L 1840.55 322.26 L 1840.55 325.26 L 1844.54 327.26 L 1849.54 325.26 L 1852.54 322.26 L 1856.54 316.26 L 1858.54 312.26 L 1860.54 310.26 L 1860.54 309.26 L 1861.54 308.26 L 1861.54 309.89 L 1861.54 310.89"/>
  <path fill="transparent" stroke="#ff69b4ff" fill-opacity="0" stroke-width="6" stroke-linecap="round" stroke-linejoin="round" d="M1860.3 310.44 L 1860.3 310.99 L 1857.3 316.84 L 1856.3 321.84 L 1856.3 322.84 L 1856.3 325.84 L 1856.3 328.84 L 1856.3 329.84 L 1857.24 330.78 L 1857.94 330.78"/>
  <path fill="transparent" stroke="#ff69b4ff" fill-opacity="0" stroke-width="6" stroke-linecap="round" stroke-linejoin="round" d="M1790.33 290.34 L 1790.33 289.34 L 1770.9 291.48 L 1743.59 292.56 L 1719.47 290.37 L 1705.99 293.48 L 1701.99 295.48 L 1700.99 303.48 L 1703.99 336.48 L 1704.99 353.48 L 1703.99 360.48 L 1707.99 366.48 L 1729.99 367.48 L 1754.25 366.45 L 1759.27 365.44 L 1771.27 364.44 L 1777.27 362.44 L 1778.27 357.44 L 1782.27 348.44 L 1787.27 337.44 L 1787.27 327.44 L 1789.27 314.44 L 1789.27 310.44 L 1788.27 302.44 L 1787.27 295.44 L 1786.27 294.44 L 1784.38 294.44"/>
  <path fill="transparent" stroke="#ff69b4ff" fill-opacity="0" stroke-width="6" stroke-linecap="round" stroke-linejoin="round" d="M1716.89 314.71 L 1716.89 315.59 L 1716.89 322.47 L 1715.89 331.47 L 1719.89 334.47 L 1725.89 334.47 L 1736.89 323.47 L 1740.89 313.47 L 1740.89 307.47 L 1740.89 306.47 L 1740.89 309.17 L 1739.89 320.17 L 1741.89 331.17 L 1741.89 336.17 L 1753.89 337.17 L 1754.89 337.17"/>
  <path fill="transparent" stroke="#ff69b4ff" fill-opacity="0" stroke-width="6" stroke-linecap="round" stroke-linejoin="round" d="M1768.81 305.27 L 1764.87 305.29 L 1759.87 309.29 L 1759.87 310.29 L 1762.87 317.29 L 1770.87 320.29 L 1783.87 323.29 L 1790.87 324.29 L 1791.87 326.24 L 1788.91 330.7 L 1782.91 332.7 L 1774.91 330.7 L 1772.91 329.7 L 1772.91 327.86 L 1772.91 329.38 L 1772.91 335.38 L 1769.91 343.38 L 1768.91 344.4"/>
  <path fill="transparent" stroke="#ff69b4ff" fill-opacity="0" stroke-width="6" stroke-linecap="round" stroke-linejoin="round" d="M1238.19 264.62 L 1238.19 263.49 L 1265.22 254.45 L 1315.5 239.12 L 1376.04 223.3 L 1447.43 214.19 L 1534.23 203.41 L 1627.41 216.72 L 1641.08 217.95 L 1672.09 227.6 L 1686.56 231.74 L 1708.46 241.12 L 1720.69 248.24 L 1730.69 253.24 L 1745.69 258.24 L 1752.69 264.24 L 1758.69 268.24 L 1756.77 263.54 L 1742.74 247.52 L 1737.74 242.52 L 1740.46 244.33 L 1753.46 253.33 L 1756.46 256.33 L 1757.46 257.33 L 1756.46 264.33 L 1746.46 270.33 L 1738.46 273.33 L 1737.46 273.33"/>
  <path fill="transparent" stroke="#ff69b4ff" fill-opacity="0" stroke-width="6" stroke-linecap="round" stroke-linejoin="round" d="M1009.19 254.53 L 1011.09 253.58 L 1019.87 242.89 L 1030.87 235.89 L 1046.87 229.89 L 1060.87 228.89 L 1104.31 228.89 L 1111.42 228.89 L 1137.4 230.92 L 1143.4 235.92 L 1144.4 236.92 L 1142.53 232.25 L 1136.53 219.25 L 1132.53 211.25 L 1137.27 216.91 L 1147.27 225.91 L 1148.27 226.91 L 1151.27 229.91 L 1141.48 235.76 L 1127.41 244.79 L 1120.41 248.79"/>
  <path fill="transparent" stroke="#ff69b4ff" fill-opacity="0" stroke-width="6" stroke-linecap="round" stroke-linejoin="round" d="M695.9 244.87 L 695.11 244.08 L 700.99 237.6 L 739.14 220.22 L 813.26 198.43 L 846.39 186.41 L 905.1 186.41 L 939.67 186.41 L 990.63 186.41 L 1022.74 191.01 L 1053.62 195.75 L 1075.34 198.13 L 1076.37 197.09 L 1069.37 192.09 L 1060.37 186.09 L 1053.37 179.09 L 1052.37 178.09 L 1056.17 181.89 L 1072.17 192.89 L 1075.17 195.89 L 1075.17 201.89 L 1072.17 208.89 L 1068.17 212.89 L 1061.17 216.89 L 1056.17 222.89 L 1056.17 224.89"/>
  <path fill="transparent" stroke="#ff69b4ff" fill-opacity="0" stroke-width="6" stroke-linecap="round" stroke-linejoin="round" d="M917.17 359 L 916.69 359.96 L 906.5 366.25 L 896.5 368.25 L 883.5 367.25 L 874.5 365.25 L 858.5 355.25 L 850.5 349.25 L 845.5 343.25 L 856.71 343.25 L 883.9 343.25 L 882.92 341.3 L 874 333.38 L 856.97 332.38 L 843.85 334.38 L 835.85 335.38 L 827.85 341.38 L 829.85 353.38 L 833.85 363.38 L 836.85 367.38 L 834.85 368.38 L 832.85 368.38"/>
  <path fill="transparent" stroke="#ff69b4ff" fill-opacity="0" stroke-width="6" stroke-linecap="round" stroke-linejoin="round" d="M910.12 367.06 L 909.24 367.06 L 873.75 380.55 L 834.24 398.41 L 822.8 399.69 L 760.52 403.49 L 720.17 403.49 L 685.07 398.3 L 635.48 381.5 L 628.44 378.49 L 604.68 369.24 L 591.59 362.21 L 579.59 353.21 L 575.59 348.21 L 575.59 347.21 L 577.8 346.27 L 591.64 348.27 L 628.44 351.4 L 630.69 351.4 L 627.07 351.4 L 599.32 348.18 L 592.11 346.12 L 585.11 343.12 L 581.11 344.12 L 580.11 345.12 L 577.16 353.98 L 576.16 365.98 L 576.16 374.98 L 577.16 375.98 L 577.16 375.08 L 576.26 372.39 L 573.26 367.39"/>
  <path fill="transparent" stroke="#ff69b4ff" fill-opacity="0" stroke-width="6" stroke-linecap="round" stroke-linejoin="round" d="M573.27 328.39 L 574 329.84 L 575 341.76 L 571 358.76 L 562 367.76 L 556 363.76 L 553 348.76 L 557 336.76 L 570 328.76 L 580 332.76 L 585 345.76 L 586 354.76 L 584 358.76 L 582 359.76 L 581 359.76"/>
  <path fill="transparent" stroke="#ff69b4ff" fill-opacity="0" stroke-width="6" stroke-linecap="round" stroke-linejoin="round" d="M1902.47 427.66 L 1897.52 426.67 L 1842.72 426.67 L 1784.79 426.67 L 1716.79 426.67 L 1693.63 426.67 L 1692.45 431.87 L 1695.77 461.68 L 1703.46 520.54 L 1703.46 585.31 L 1708.44 669.69 L 1710.06 713.52 L 1712.7 763.99 L 1715.14 772.57 L 1725.25 784.68 L 1751.25 794.68 L 1844.76 767.93 L 1893.68 758.47 L 1898.36 756.91 L 1911.46 748.78 L 1919 735.78 L 1919 713.18 L 1919 660.83 L 1912.05 620.59 L 1907.85 570.81 L 1902.07 512.49 L 1898.03 490.7 L 1893.25 480.98 L 1891.19 477.86 L 1891.19 471.86 L 1891.19 463.86 L 1891.19 454.86 L 1891.19 447.86 L 1890.19 437.86 L 1889.19 436.86 L 1883.19 442.86"/>
  <path fill="transparent" stroke="#ff69b4ff" fill-opacity="0" stroke-width="6" stroke-linecap="round" stroke-linejoin="round" d="M1863.39 461.06 L 1846.28 461.06 L 1809.13 463.51 L 1774.27 463.51 L 1767.18 466.97"/>
  <path fill="transparent" stroke="#ff69b4ff" fill-opacity="0" stroke-width="6" stroke-linecap="round" stroke-linejoin="round" d="M1914.71 561.96 L 1903.08 561.96 L 1794.07 568.68 L 1758.29 580.57"/>
  <path fill="transparent" stroke="#ff69b4ff" fill-opacity="0" stroke-width="6" stroke-linecap="round" stroke-linejoin="round" d="M1912.5 662.73 L 1912.5 665.73 L 1910.5 673.73 L 1874.59 677.5 L 1856.22 678.83"/>
  <path fill="transparent" stroke="#ff69b4ff" fill-opacity="0" stroke-width="6" stroke-linecap="round" stroke-linejoin="round" d="M1854.68 682.14 L 1821.97 686.53 L 1814.18 692.4 L 1812.18 697.4"/>
  <path fill="transparent" stroke="#ff69b4ff" fill-opacity="0" stroke-width="6" stroke-linecap="round" stroke-linejoin="round" d="M1627.68 463.75 L 1457.06 475.96 L 1420.06 486.18 L 1401.4 529.23 L 1389.62 611.25 L 1388.04 690.42 L 1396.63 754.45 L 1418.57 798.18 L 1462.47 856.06 L 1498.88 870.22 L 1585.84 871.58 L 1628.64 871.58 L 1626.77 869.71 L 1624.77 854.77 L 1624.77 806.79 L 1624.77 732.67 L 1624.77 660.26 L 1624.77 585.13 L 1621.56 537.13 L 1621.56 498.26 L 1621.56 476.27 L 1617.24 454.44 L 1616.24 452.44"/>
  <path fill="transparent" stroke="#ff69b4ff" fill-opacity="0" stroke-width="6" stroke-linecap="round" stroke-linejoin="round" d="M1593.48 520.12 L 1588.48 522.13 L 1541.48 531.13 L 1531.47 534.13 L 1528.43 536.13"/>
  <path fill="transparent" stroke="#ff69b4ff" fill-opacity="0" stroke-width="6" stroke-linecap="round" stroke-linejoin="round" d="M1567.65 627.35 L 1507.66 644.9 L 1499.55 648.69 L 1499.55 653.69"/>
  <path fill="transparent" stroke="#ff69b4ff" fill-opacity="0" stroke-width="6" stroke-linecap="round" stroke-linejoin="round" d="M1578.26 708.76 L 1562.41 729.55 L 1521.77 741.65 L 1498.47 751.97 L 1494.88 753.17"/>
  <path fill="transparent" stroke="#ff69b4ff" fill-opacity="0" stroke-width="6" stroke-linecap="round" stroke-linejoin="round" d="M1304 515.29 L 1292.53 515.29 L 1179.85 533.15 L 1010.87 527.2 L 946.94 521.2 L 943.78 530.26 L 1000.42 822.5 L 1014.3 917.78 L 1017.58 950.75 L 1024.66 972.6 L 1056.28 974.61 L 1254.4 952.62 L 1265.7 952.62 L 1271.41 947.49 L 1283.92 844.06 L 1283.92 696.66 L 1271.48 606.74 L 1254.35 577.23 L 1247.87 539.47 L 1246.72 534.94"/>
  <path fill="transparent" stroke="#ff69b4ff" fill-opacity="0" stroke-width="6" stroke-linecap="round" stroke-linejoin="round" d="M1196.58 600.06 L 1162.86 598.97 L 1093.51 598.97 L 1048.24 598.97 L 1044.95 620.28 L 1057.35 632.68"/>
  <path fill="transparent" stroke="#ff69b4ff" fill-opacity="0" stroke-width="6" stroke-linecap="round" stroke-linejoin="round" d="M1210.18 739.7 L 1203.53 746.35 L 1144.81 775.93 L 1124.15 788.76 L 1122.95 789.96"/>
  <path fill="transparent" stroke="#ff69b4ff" fill-opacity="0" stroke-width="6" stroke-linecap="round" stroke-linejoin="round" d="M1191.7 849.77 L 1183.06 863.59 L 1158.03 878.5"/>
  <path fill="transparent" stroke="#ff69b4ff" fill-opacity="0" stroke-width="6" stroke-linecap="round" stroke-linejoin="round" d="M1163.08 889.53 L 1147.85 893.88 L 1124.7 902.28 L 1095.48 906.72"/>
  <path fill="transparent" stroke="#ff69b4ff" fill-opacity="0" stroke-width="6" stroke-linecap="round" stroke-linejoin="round" d="M1757.55 395.54 L 1753.55 398.54 L 1751.55 415.54 L 1764.55 414.54 L 1769.62 400.33 L 1769.62 399.33 L 1769.62 406.95 L 1772.62 415.95 L 1777.62 415.95"/>
  <path fill="transparent" stroke="#ff69b4ff" fill-opacity="0" stroke-width="6" stroke-linecap="round" stroke-linejoin="round" d="M1811.62 374.95 L 1810.62 374.95 L 1803.62 383.95 L 1816.12 398.41 L 1827.49 404.61 L 1822.78 405.51 L 1819.78 406.51 L 1815.78 410.51 L 1806.78 421.51 L 1804.91 421.64 L 1804.91 422.07 L 1804.91 424.93"/>
  <path fill="transparent" stroke="#ff69b4ff" fill-opacity="0" stroke-width="6" stroke-linecap="round" stroke-linejoin="round" d="M1852.16 387.2 L 1855.55 402.59 L 1864.24 421.18 L 1864.24 408.28 L 1872.7 388.29 L 1879 378.79"/>
  <path fill="transparent" stroke="#ff69b4ff" fill-opacity="0" stroke-width="6" stroke-linecap="round" stroke-linejoin="round" d="M1483.1 424.68 L 1475.35 437.22 L 1470.78 451.56 L 1475.78 452.56 L 1490.78 446.56 L 1499.79 428.55 L 1499.79 426.55 L 1499.79 439.27 L 1503.79 455.27 L 1512.79 456.27 L 1513.79 455.27 L 1514.79 454.27"/>
  <path fill="transparent" stroke="#ff69b4ff" fill-opacity="0" stroke-width="6" stroke-linecap="round" stroke-linejoin="round" d="M1528.79 428.27 L 1528.79 429.03 L 1534.79 448.82 L 1535.79 451.82 L 1537.79 445.82 L 1540.79 434.82 L 1546.79 428.82 L 1554.79 431.82 L 1559.79 444.82 L 1561.79 458.82 L 1562.79 459.82 L 1562.79 458.92"/>
  <path fill="transparent" stroke="#ff69b4ff" fill-opacity="0" stroke-width="6" stroke-linecap="round" stroke-linejoin="round" d="M1575.63 424.17 L 1578.61 433.12 L 1585.61 445.12 L 1586.61 447.12"/>
  <path fill="transparent" stroke="#ff69b4ff" fill-opacity="0" stroke-width="6" stroke-linecap="round" stroke-linejoin="round" d="M1570.14 415.55 L 1570.14 417.29 L 1564.14 424.29 L 1562.14 426.29"/>
  <path fill="transparent" stroke="#ff69b4ff" fill-opacity="0" stroke-width="6" stroke-linecap="round" stroke-linejoin="round" d="M1043.72 477.98 L 1043.72 482.55 L 1043.72 502.46 L 1043.72 508.71 L 1048.72 496.08 L 1058.72 489.08 L 1076.72 491.08 L 1084.72 502.08 L 1085.72 510.08"/>
  <path fill="transparent" stroke="#ff69b4ff" fill-opacity="0" stroke-width="6" stroke-linecap="round" stroke-linejoin="round" d="M1090.79 478.47 L 1090.79 480.47 L 1097.79 498.47 L 1103.79 501.47 L 1106.79 502.47 L 1117.79 488.47 L 1118.79 481.47 L 1118.79 480.47 L 1120.57 483.14 L 1130.57 501.14 L 1131.57 502.14 L 1138 501.21 L 1142.99 487.22 L 1145.99 474.22 L 1146.99 472.22 L 1149.83 473.99 L 1151.83 475.99"/>
  <path fill="transparent" stroke="#ff69b4ff" fill-opacity="0" stroke-width="6" stroke-linecap="round" stroke-linejoin="round" d="M1199.83 464.99 L 1188.7 463.99 L 1180.66 468.99 L 1191.66 489.99 L 1205.66 491.99 L 1207.66 491.99 L 1199.76 494.84 L 1185.76 494.84 L 1181.76 494.84 L 1180.76 496.74 L 1181.76 507.49 L 1178.76 514.49 L 1176.76 517.49 L 1173.07 518.49"/>
  <path fill="transparent" stroke="#ff69b4ff" fill-opacity="0" stroke-width="5" stroke-linecap="round" stroke-linejoin="round" d="M1189.16 6.62 L 1189.94 6.62 L 1190.98 6.08"/>
</svg>